<?xml version="1.0" encoding="UTF-8"?>
<!DOCTYPE svg PUBLIC "-//W3C//DTD SVG 1.1//EN" "http://www.w3.org/Graphics/SVG/1.1/DTD/svg11.dtd">
<!-- Creator: CorelDRAW X7 -->
<svg xmlns="http://www.w3.org/2000/svg" xml:space="preserve" width="2550px" height="3300px" version="1.1" style="shape-rendering:geometricPrecision; text-rendering:geometricPrecision; image-rendering:optimizeQuality; fill-rule:evenodd; clip-rule:evenodd"
viewBox="0 0 2550 3300"
 xmlns:xlink="http://www.w3.org/1999/xlink">
 <defs>
  <style type="text/css">
   <![CDATA[
    .fil0 {fill:#373435}
   ]]>
  </style>
 </defs>
 <g id="Layer_x0020_1">
  <metadata id="CorelCorpID_0Corel-Layer"/>
  <path class="fil0" d="M1537 1563l118 66 68 -59 10 42 37 1c40,2 34,-5 70,-20l-48 70c-28,-13 -12,-10 -48,-10 -45,0 -48,15 -92,26 -86,-21 -81,-55 -115,-116zm271 -255l-245 -86c49,32 174,88 245,86zm-534 15c75,-46 96,-103 208,-103l13 2 51 -14 -51 -1 -26 0c-77,0 -154,49 -195,116zm465 -210l-35 22 35 -22zm-110 -23l22 35c-37,-6 -23,20 -22,-35zm-174 -76l-169 -1c4,2 209,35 236,39l-15 52c34,42 19,35 66,35l-37 -62c45,11 46,17 54,59l152 58c21,-61 39,-45 80,-76l-43 -12 -33 -55 -27 40 -171 -71 155 16c-13,-77 -93,-121 -152,-170 8,75 35,44 47,105l-117 -1 -38 26 103 26 -91 -8zm-314 111c50,-63 104,-66 131,-98l-54 -5c-137,108 -234,158 -234,355l0 53c0,53 8,123 49,157 30,-302 110,-420 422,-448 -34,-18 -107,-37 -157,-37l-39 0 -54 -1 -64 24zm602 293l-55 -23 -140 -42 39 -2 26 0c70,17 176,92 236,92 67,0 81,-28 136,-31l-77 82 -19 -23 -61 19 -71 29 15 -65 -29 -36zm249 -39c16,-15 53,-51 64,-65l2 47c-38,35 -27,39 -66,18zm-248 317l10 26c-106,132 -318,-144 -451,-130l-57 105 -45 -160 -24 21 -18 -88 -29 117c-47,-131 18,-158 15,-255 -81,49 -78,278 -119,339 -54,-49 -60,-194 -72,-266l-32 9c-39,-159 -92,-342 48,-441 109,-11 102,14 173,-69 19,-23 55,-38 67,-63 17,-37 -8,-48 12,-91 237,-83 301,99 347,75 -3,-14 -66,-111 -28,-103 87,18 146,37 196,123 -47,-21 -84,-99 -157,-101l217 236 12 -8 -59 -109c61,16 163,136 162,199 -3,135 105,151 125,236 -52,32 -74,-17 -127,-17 19,47 73,40 42,105 -56,27 -171,25 -210,-32l149 14 -332 -90 163 65c-56,-12 -168,-33 -221,-13 -39,15 -105,128 -70,176 13,18 110,133 126,150 102,106 84,49 187,40zm-878 -738c0,-73 -48,-82 -76,-129 54,9 108,43 143,89l-86 133c-6,-80 19,-17 19,-93zm120 -28c-21,-114 -173,-104 -223,-179l50 -3 184 0c51,0 134,23 171,52l-41 65 -77 16 11 20 -75 29zm-186 -221c-125,0 -165,4 -288,-26 -69,-17 -160,-77 -202,-84l88 77 -83 -19c95,104 476,115 500,327l-81 100 85 12 67 423 28 -12c15,129 99,350 228,389l-19 -124 28 -22 21 -56c41,42 55,120 105,121 33,-63 5,-166 121,-145 58,10 127,67 180,96 142,80 281,-42 285,-192l-41 -33 23 -47 52 38c13,-7 195,-157 196,-160 39,-98 -77,-149 -110,-220 -41,-87 -32,-166 -98,-243 -45,-51 -119,-123 -170,-171 -100,-94 -345,-179 -479,-203 -87,-14 -206,-30 -287,-54 -57,-16 -195,-90 -233,-91l102 78 -88 -5c44,64 193,48 262,94 25,16 158,149 167,171l-306 -25 -53 6zm460 -44l52 -9 39 1c32,0 96,12 117,22l-52 4 -13 0 -103 14 10 -25 -50 -7zm-28 27c-59,2 -141,-94 -167,-138l50 -3c53,-1 304,63 340,89l-52 4 -13 -1c-49,0 -26,7 -64,-14l-90 19 -27 26 23 18z"/>
 </g>
</svg>
