<?xml version="1.0" standalone="no"?>
<!DOCTYPE svg PUBLIC "-//W3C//DTD SVG 20010904//EN"
 "http://www.w3.org/TR/2001/REC-SVG-20010904/DTD/svg10.dtd">
<svg version="1.0" xmlns="http://www.w3.org/2000/svg"
 width="1920.000000pt" height="1683.000000pt" viewBox="0 0 1920.000000 1683.000000"
 preserveAspectRatio="xMidYMid meet">
<metadata>
Created by potrace 1.13, written by Peter Selinger 2001-2015
</metadata>
<g transform="translate(0.000000,1683.000000) scale(0.100000,-0.100000)"
fill="red" stroke="none">
<path d="M4640 16177 c0 -3 225 -177 500 -387 276 -210 499 -384 497 -386 -2
-2 -196 8 -432 21 -235 14 -429 24 -432 22 -9 -10 133 -149 201 -196 214 -148
508 -244 1056 -346 587 -109 786 -154 986 -220 140 -47 331 -141 414 -204 271
-205 1146 -1077 1479 -1474 72 -86 153 -198 148 -204 -2 -1 -329 24 -728 57
-798 65 -1218 100 -1589 130 -135 11 -356 29 -492 40 l-247 20 -273 -31 -273
-31 -670 5 c-507 3 -714 9 -850 21 -391 35 -725 91 -1200 202 -406 95 -598
171 -1370 546 -198 97 -421 200 -495 231 -126 52 -279 101 -287 93 -2 -2 190
-173 426 -381 237 -207 431 -378 431 -380 0 -2 -28 3 -62 11 -35 8 -191 44
-348 80 -157 36 -311 71 -343 79 -31 7 -57 9 -57 5 0 -5 37 -41 83 -80 240
-208 629 -406 1227 -625 85 -31 378 -135 650 -230 761 -265 1049 -376 1402
-540 966 -449 1481 -982 1609 -1666 l21 -116 -404 -499 c-223 -274 -404 -500
-403 -502 1 -1 190 -29 420 -62 230 -33 420 -62 422 -64 3 -2 154 -952 338
-2111 184 -1159 335 -2108 337 -2110 2 -2 64 23 138 54 l135 58 7 -36 c4 -20
21 -120 38 -222 131 -794 466 -1709 873 -2379 324 -535 687 -915 1077 -1128
73 -40 279 -126 286 -120 1 2 -39 280 -91 618 -62 408 -91 618 -84 625 5 5 69
57 141 115 l131 105 100 270 c55 149 102 272 105 275 7 8 92 -90 153 -176 31
-43 98 -151 149 -239 51 -88 126 -218 167 -290 179 -310 330 -453 514 -488 73
-13 74 -13 119 104 45 118 74 225 130 485 69 321 92 400 155 530 43 89 67 125
118 177 137 139 345 196 607 167 236 -26 415 -81 665 -205 201 -99 355 -191
734 -434 672 -433 864 -522 1233 -577 150 -22 419 -15 558 16 581 126 1065
527 1360 1125 141 287 235 646 243 929 l2 89 -202 164 -202 163 112 231 c62
127 117 231 122 230 6 -1 124 -85 263 -187 l253 -185 52 38 c257 186 1790
1444 1889 1549 33 36 74 172 90 301 22 172 -17 374 -106 551 -91 182 -224 350
-536 682 -388 412 -473 531 -600 841 -70 169 -148 416 -220 690 -186 710 -263
928 -430 1212 -166 284 -399 545 -1167 1307 -712 707 -926 903 -1203 1097
-816 574 -2305 1197 -3725 1558 -342 87 -576 134 -1005 200 -1183 184 -1741
285 -2205 401 -446 112 -552 152 -1432 542 -506 225 -824 355 -993 405 -108
32 -210 54 -210 44z m4148 -1618 c611 -66 2163 -453 2872 -716 165 -62 357
-149 348 -159 -14 -13 -416 -35 -696 -38 l-322 -3 -130 73 -130 74 -453 -95
-452 -96 -127 -127 c-71 -70 -128 -130 -128 -134 0 -4 47 -43 105 -88 58 -45
105 -84 105 -87 0 -10 -125 7 -200 28 -161 44 -390 180 -600 355 -200 166
-477 461 -661 704 -94 124 -200 285 -189 288 13 5 402 29 488 31 40 0 116 -4
170 -10z m2423 -1065 c268 -26 615 -94 822 -161 60 -19 107 -36 105 -39 -7 -7
-485 -44 -568 -44 -41 0 -304 -32 -584 -70 -281 -38 -511 -68 -512 -67 -1 1
20 56 46 122 l48 120 -26 7 c-15 4 -115 18 -222 33 -107 14 -202 29 -210 32
-8 3 91 25 220 49 l235 43 250 -5 c138 -3 316 -12 396 -20z m1870 -678 c373
-84 582 -152 816 -266 353 -172 600 -397 851 -773 46 -70 82 -130 79 -133 -6
-7 -57 19 -117 59 -80 54 -201 160 -395 347 -211 203 -328 304 -440 380 -100
67 -231 132 -330 163 -82 26 -230 52 -257 45 -9 -2 115 -144 331 -378 190
-207 678 -737 1084 -1178 l738 -802 59 40 60 41 -45 82 c-24 45 -156 289 -293
542 -138 253 -248 461 -247 463 8 9 178 -68 267 -121 184 -111 343 -242 558
-463 410 -421 713 -915 776 -1264 7 -41 13 -127 14 -191 1 -387 94 -713 287
-1001 87 -131 187 -248 399 -468 222 -231 325 -350 397 -460 61 -94 119 -214
146 -305 l21 -70 -23 -17 c-38 -30 -159 -76 -231 -89 -137 -23 -238 1 -501
123 -229 107 -306 131 -444 144 l-74 7 37 -69 c48 -92 116 -174 218 -261 114
-98 201 -190 229 -243 21 -39 24 -59 24 -150 0 -110 -18 -187 -68 -290 -20
-41 -28 -47 -105 -77 -227 -91 -570 -142 -856 -129 -491 23 -854 156 -1082
399 -41 44 -73 81 -71 83 2 2 314 -26 693 -61 379 -36 700 -64 714 -63 14 2
-90 34 -230 72 -140 38 -865 235 -1610 437 -745 202 -1356 366 -1357 365 -2
-2 346 -141 772 -311 426 -170 773 -310 772 -312 -2 -2 -71 11 -153 27 -512
104 -930 158 -1305 167 -361 9 -610 -24 -750 -98 -240 -129 -542 -558 -677
-964 -59 -177 -76 -269 -76 -420 -1 -211 24 -271 211 -503 201 -250 733 -883
1026 -1222 125 -144 391 -409 521 -518 228 -192 352 -249 515 -239 73 4 124
18 326 85 132 44 287 90 345 101 147 29 271 44 280 34 4 -4 28 -64 54 -132
l47 -125 -73 -74 c-129 -131 -260 -209 -423 -253 -116 -32 -338 -31 -485 0
-220 48 -489 154 -764 302 -197 106 -419 240 -866 524 -475 301 -653 407 -885
526 -393 202 -662 284 -909 277 l-109 -3 -281 -517 c-154 -285 -283 -514 -287
-510 -4 4 -98 331 -209 727 -111 396 -210 750 -221 788 l-20 68 -119 -106
c-68 -61 -120 -99 -122 -92 -3 6 -42 200 -89 429 -46 230 -86 418 -89 418 -3
0 -68 -253 -144 -562 -76 -310 -142 -567 -146 -571 -4 -4 -26 54 -49 130 -159
526 -162 869 -11 1348 171 548 197 661 207 909 l6 149 -44 -30 c-55 -38 -155
-141 -209 -213 -206 -278 -365 -748 -520 -1542 -155 -793 -183 -933 -222
-1083 -22 -88 -56 -205 -75 -259 -35 -101 -105 -250 -122 -260 -12 -8 -101 98
-170 204 -143 219 -268 596 -355 1075 -41 225 -72 437 -121 825 -38 304 -72
540 -77 545 -2 2 -73 -16 -158 -40 -85 -24 -156 -42 -159 -40 -6 6 -118 463
-195 800 -136 589 -198 960 -227 1370 -14 205 -7 551 16 720 56 419 193 771
417 1068 77 104 278 304 384 384 l80 61 110 11 c60 6 258 18 439 26 343 15
444 28 542 67 135 55 280 178 489 415 200 227 267 292 419 408 331 252 395
325 446 512 20 71 21 90 13 208 -4 72 -8 186 -8 255 0 111 3 135 28 213 16 49
36 97 45 107 10 13 82 39 203 74 775 228 1408 203 1993 -78 225 -108 406 -229
728 -488 274 -221 345 -262 454 -263 41 0 77 5 83 11 9 9 -28 91 -143 320
-206 411 -256 541 -244 642 10 87 42 90 318 28z m-5411 -231 c419 -45 906
-184 1234 -353 121 -63 241 -142 238 -157 -5 -28 -400 -639 -417 -646 -11 -4
-177 -40 -370 -79 -192 -39 -358 -74 -367 -78 -15 -6 -10 -20 37 -102 30 -52
51 -98 47 -101 -4 -3 -151 -61 -327 -129 -176 -68 -341 -131 -367 -141 l-48
-19 -6 28 c-58 276 -203 505 -436 689 -168 133 -368 240 -813 433 -488 212
-677 321 -841 484 -50 50 -101 106 -113 124 l-22 32 23 1 c13 0 109 6 213 13
292 20 2154 21 2335 1z m-2148 -829 c289 -75 556 -204 806 -391 118 -88 314
-273 408 -386 l65 -78 -428 -662 -428 -661 -8 58 c-5 33 -6 113 -4 180 6 145
23 195 83 236 77 54 102 134 111 358 9 249 -21 422 -102 585 -63 127 -125 205
-323 405 -194 196 -354 390 -323 390 6 0 70 -15 143 -34z m12518 -5056 l11
-224 -138 -138 c-156 -158 -194 -183 -256 -172 -34 5 -237 101 -256 119 -4 4
621 642 626 640 1 0 7 -102 13 -225z m-4364 -151 c207 -62 406 -146 809 -341
682 -331 817 -392 1025 -463 228 -78 292 -89 490 -89 246 0 402 30 650 126
226 86 354 128 447 147 134 27 216 36 212 24 -6 -16 -750 -803 -759 -803 -4 0
-49 50 -100 111 -55 66 -97 109 -105 106 -7 -3 -149 -48 -316 -101 -227 -71
-390 -130 -644 -235 -187 -77 -341 -138 -342 -137 -1 1 31 147 73 324 l75 323
-148 181 -148 181 -270 113 c-254 106 -310 124 -962 320 -381 114 -691 209
-689 211 7 7 281 20 457 22 153 1 186 -2 245 -20z m-237 -2434 l581 -325 340
295 c302 262 340 293 345 273 3 -13 25 -105 49 -206 24 -101 46 -185 48 -188
3 -3 134 -8 290 -11 210 -4 302 -3 349 6 41 9 123 42 236 99 95 47 175 84 177
81 5 -4 -158 -246 -401 -596 l-63 -92 -103 50 -102 51 -240 -5 c-290 -6 -327
-14 -576 -121 -96 -41 -220 -88 -276 -106 l-101 -32 -99 27 c-270 76 -448 169
-584 304 -84 84 -154 191 -236 361 -36 74 -99 205 -142 290 -90 184 -84 170
-78 170 3 0 267 -146 586 -325z"/>
<path d="M12985 11374 c15 -112 48 -253 72 -314 37 -92 64 -131 160 -233 47
-49 102 -115 122 -147 35 -54 91 -202 105 -279 l6 -33 -583 7 -584 7 -187
-127 c-102 -71 -183 -131 -179 -135 4 -4 226 -62 493 -129 444 -112 555 -143
460 -127 -19 3 -217 21 -440 40 l-405 35 -840 6 c-462 4 -838 5 -835 2 8 -8
1147 -198 2144 -356 104 -17 190 -32 192 -34 2 -1 -31 -118 -72 -260 l-74
-257 104 -132 c181 -231 159 -219 385 -216 l169 3 -183 305 c-101 168 -182
306 -181 307 2 2 51 -10 109 -27 261 -73 334 -143 387 -370 12 -52 27 -117 34
-144 l11 -48 360 -137 c881 -336 1131 -430 1143 -433 8 -2 27 34 51 93 59 149
106 226 190 310 69 69 90 82 241 157 182 89 328 179 314 191 -5 5 -94 32 -199
61 -104 29 -197 56 -205 60 -8 5 -87 128 -175 274 -88 146 -162 266 -166 266
-3 0 -65 -88 -137 -195 l-133 -195 -37 16 c-58 24 -998 414 -1287 534 -143 60
-285 119 -315 133 l-55 26 40 -5 c166 -20 1490 -153 1492 -150 2 2 -5 41 -17
86 -78 307 -270 595 -582 876 -148 133 -272 234 -573 464 -132 101 -264 204
-293 229 l-54 45 7 -50z m845 -2304 c29 -47 74 -119 100 -160 l47 -76 -91 1
c-50 0 -106 -4 -125 -9 l-33 -8 5 38 c3 22 11 101 18 177 7 75 16 134 19 130
4 -5 30 -46 60 -93z"/>
<path d="M9625 9841 c-11 -10 -180 -141 -375 -291 -594 -457 -766 -599 -994
-820 -581 -565 -841 -1118 -928 -1970 -18 -177 -18 -1229 0 -1400 54 -505 180
-849 397 -1079 37 -39 69 -70 71 -68 2 2 15 104 29 228 126 1099 299 1794 592
2379 559 1119 1566 1661 3442 1854 79 9 145 17 148 19 8 8 -213 99 -358 148
-165 55 -450 127 -621 158 -270 49 -322 52 -927 61 l-583 9 -306 -114 c-168
-63 -309 -115 -314 -115 -15 0 67 95 166 193 165 163 334 282 631 442 214 116
296 163 350 203 55 40 147 124 142 129 -4 3 -495 52 -532 53 -6 0 -19 -8 -30
-19z"/>
<path d="M12000 8003 c-657 -67 -1288 -444 -1696 -1013 -34 -47 -67 -95 -73
-108 -12 -23 -12 -23 11 -11 78 40 266 182 543 409 315 259 414 327 597 415
219 104 431 157 708 177 127 9 184 9 245 0 l80 -12 250 68 250 67 -135 6
c-142 7 -720 8 -780 2z"/>
<path d="M13161 7822 c205 -130 636 -341 967 -473 524 -211 975 -329 1307
-345 l110 -5 -710 251 c-960 339 -1705 600 -1713 600 -3 0 14 -13 39 -28z"/>
</g>
</svg>
